<svg xmlns="http://www.w3.org/2000/svg" xmlns:xlink="http://www.w3.org/1999/xlink" width="1080" zoomAndPan="magnify" viewBox="0 0 810 1439.999935" height="1920" preserveAspectRatio="xMidYMid meet" version="1.0"><defs><g/></defs><rect x="-81" width="972" fill="#ffffff" y="-143.999994" height="1727.999922" fill-opacity="1"/><rect x="-81" width="972" fill="#ffffff" y="-143.999994" height="1727.999922" fill-opacity="1"/><rect x="-81" width="972" fill="#000000" y="-143.999994" height="1727.999922" fill-opacity="1"/><g fill="#ffde59" fill-opacity="1"><g transform="translate(280.795278, 828.306558)"><g><path d="M 145.203125 -235.59375 L 145.203125 -161.59375 C 158.265625 -157.59375 168.660156 -153.992188 176.390625 -150.796875 C 184.128906 -147.597656 192.796875 -142.863281 202.390625 -136.59375 C 211.992188 -130.332031 219.0625 -122.46875 223.59375 -113 C 228.132812 -103.53125 230.40625 -92.265625 230.40625 -79.203125 C 230.40625 -57.335938 222.671875 -39.335938 207.203125 -25.203125 C 191.734375 -11.066406 171.066406 -2.53125 145.203125 0.40625 L 145.203125 56.796875 L 110 56.796875 L 110 0.796875 C 71.601562 -2.398438 38.40625 -16.929688 10.40625 -42.796875 L 30.796875 -83.59375 C 54.796875 -61.46875 81.195312 -48.269531 110 -44 L 110 -124 C 99.863281 -126.9375 91.726562 -129.535156 85.59375 -131.796875 C 79.46875 -134.066406 72.203125 -137.46875 63.796875 -142 C 55.398438 -146.53125 48.867188 -151.328125 44.203125 -156.390625 C 39.535156 -161.460938 35.46875 -168.128906 32 -176.390625 C 28.53125 -184.660156 26.796875 -193.863281 26.796875 -204 C 26.796875 -225.0625 34.257812 -242.394531 49.1875 -256 C 64.125 -269.601562 84.394531 -277.867188 110 -280.796875 L 110 -333.59375 L 145.203125 -333.59375 L 145.203125 -281.203125 C 176.128906 -278.265625 203.328125 -268.929688 226.796875 -253.203125 L 207.203125 -211.59375 C 186.929688 -223.863281 166.265625 -231.863281 145.203125 -235.59375 Z M 110 -236.40625 C 89.726562 -232.9375 79.59375 -223.597656 79.59375 -208.390625 C 79.59375 -193.191406 89.726562 -181.59375 110 -173.59375 Z M 145.203125 -113.203125 L 145.203125 -44.40625 C 167.066406 -48.9375 178 -59.734375 178 -76.796875 C 178 -92.535156 167.066406 -104.671875 145.203125 -113.203125 Z M 145.203125 -113.203125 "/></g></g></g></svg>