<svg xmlns="http://www.w3.org/2000/svg" xmlns:xlink="http://www.w3.org/1999/xlink" width="1080" zoomAndPan="magnify" viewBox="0 0 810 1439.999935" height="1920" preserveAspectRatio="xMidYMid meet" version="1.0"><defs><g/></defs><rect x="-81" width="972" fill="#ffffff" y="-143.999994" height="1727.999922" fill-opacity="1"/><rect x="-81" width="972" fill="#ffffff" y="-143.999994" height="1727.999922" fill-opacity="1"/><rect x="-81" width="972" fill="#000000" y="-143.999994" height="1727.999922" fill-opacity="1"/><g fill="#ffde59" fill-opacity="1"><g transform="translate(213.495044, 721.949269)"><g><path d="M 64.511719 -79.4375 L 64.511719 -92.515625 L 11.101562 -92.515625 L 11.101562 0 L 64.511719 0 L 64.511719 -13.074219 L 25.289062 -13.074219 L 25.289062 -39.71875 L 59.332031 -39.71875 L 59.332031 -52.792969 L 25.289062 -52.792969 L 25.289062 -79.4375 Z M 64.511719 -79.4375 "/></g></g></g><g fill="#ffde59" fill-opacity="1"><g transform="translate(278.994496, 721.949269)"><g><path d="M 24.546875 -13.320312 L 24.546875 -92.515625 L 10.363281 -92.515625 L 10.363281 0 L 57.480469 0 L 57.480469 -13.320312 Z M 24.546875 -13.320312 "/></g></g></g><g fill="#ffde59" fill-opacity="1"><g transform="translate(332.775555, 721.949269)"><g><path d="M 11.101562 0 L 25.289062 0 L 25.289062 -92.515625 L 11.101562 -92.515625 Z M 11.101562 0 "/></g></g></g><g fill="#ffde59" fill-opacity="1"><g transform="translate(364.476682, 721.949269)"><g><path d="M 42.433594 -62.417969 C 34.785156 -62.417969 28.496094 -60.195312 23.4375 -55.753906 L 27.382812 -79.6875 L 67.226562 -79.6875 L 67.226562 -92.515625 L 16.777344 -92.515625 L 8.019531 -41.691406 L 22.449219 -41.324219 C 24.175781 -44.035156 26.644531 -46.132812 29.605469 -47.859375 C 32.566406 -49.464844 35.648438 -50.328125 38.734375 -50.328125 C 43.667969 -50.328125 47.738281 -48.476562 51.191406 -45.023438 C 54.644531 -41.570312 56.371094 -37.003906 56.371094 -31.578125 C 56.371094 -25.902344 54.644531 -21.214844 51.316406 -17.761719 C 47.859375 -14.183594 43.667969 -12.457031 38.609375 -12.457031 C 34.167969 -12.457031 30.222656 -13.570312 26.890625 -16.035156 C 23.4375 -18.378906 21.464844 -21.957031 20.722656 -26.644531 L 5.921875 -26.152344 C 6.167969 -20.476562 7.894531 -15.664062 11.101562 -11.472656 C 14.308594 -7.277344 18.257812 -4.070312 22.945312 -1.972656 C 27.632812 0.125 32.6875 1.109375 38.117188 1.109375 C 47.492188 1.109375 55.261719 -1.851562 61.554688 -8.019531 C 67.71875 -14.183594 70.925781 -22.082031 70.925781 -31.824219 C 70.925781 -40.828125 68.214844 -48.230469 62.785156 -53.90625 C 57.359375 -59.578125 50.574219 -62.417969 42.433594 -62.417969 Z M 42.433594 -62.417969 "/></g></g></g><g fill="#ffde59" fill-opacity="1"><g transform="translate(436.39041, 721.949269)"><g><path d="M 6.785156 -26.890625 L 49.957031 -26.890625 L 49.957031 -37.253906 L 6.785156 -37.253906 Z M 6.785156 -26.890625 "/></g></g></g><g fill="#ffde59" fill-opacity="1"><g transform="translate(488.444544, 721.949269)"><g><path d="M 74.382812 0 L 89.800781 0 L 52.671875 -92.515625 L 36.757812 -92.515625 L -0.371094 0 L 15.050781 0 L 22.695312 -19.859375 L 66.734375 -19.859375 Z M 27.632812 -32.566406 L 44.777344 -77.21875 L 61.921875 -32.566406 Z M 27.632812 -32.566406 "/></g></g></g><g fill="#ffde59" fill-opacity="1"><g transform="translate(573.31019, 721.949269)"><g><path d="M 11.101562 0 L 25.289062 0 L 25.289062 -92.515625 L 11.101562 -92.515625 Z M 11.101562 0 "/></g></g></g><g fill="#e9e6e1" fill-opacity="1"><g transform="translate(302.08902, 782.13536)"><g><path d="M 23.398438 0 L 26.253906 0 L 14.632812 -28.957031 L 11.738281 -28.957031 L 0.117188 0 L 2.972656 0 L 5.675781 -6.910156 L 20.695312 -6.910156 Z M 6.679688 -9.421875 L 13.203125 -25.945312 L 19.691406 -9.421875 Z M 6.679688 -9.421875 "/></g></g></g><g fill="#e9e6e1" fill-opacity="1"><g transform="translate(331.92886, 782.13536)"><g><path d="M 17.335938 -14.75 C 18.570312 -15.367188 19.574219 -16.214844 20.269531 -17.375 C 20.964844 -18.496094 21.351562 -19.808594 21.351562 -21.3125 C 21.351562 -23.476562 20.578125 -25.289062 19.035156 -26.757812 C 17.492188 -28.222656 15.636719 -28.957031 13.476562 -28.957031 L 3.589844 -28.957031 L 3.589844 0 L 14.941406 0 C 17.105469 0 18.957031 -0.695312 20.464844 -2.164062 C 21.96875 -3.589844 22.742188 -5.40625 22.742188 -7.605469 C 22.742188 -9.382812 22.238281 -10.886719 21.273438 -12.164062 C 20.269531 -13.398438 18.957031 -14.285156 17.335938 -14.75 Z M 18.726562 -21.121094 C 18.726562 -19.574219 18.183594 -18.300781 17.105469 -17.296875 C 16.023438 -16.253906 14.75 -15.753906 13.203125 -15.753906 L 6.175781 -15.753906 L 6.175781 -26.332031 L 13.203125 -26.332031 C 14.75 -26.332031 16.023438 -25.832031 17.105469 -24.828125 C 18.183594 -23.824219 18.726562 -22.585938 18.726562 -21.121094 Z M 14.632812 -2.625 L 6.175781 -2.625 L 6.175781 -13.203125 L 14.632812 -13.203125 C 16.140625 -13.203125 17.414062 -12.664062 18.496094 -11.660156 C 19.574219 -10.617188 20.117188 -9.34375 20.117188 -7.875 C 20.117188 -6.371094 19.574219 -5.136719 18.53125 -4.132812 C 17.453125 -3.128906 16.175781 -2.625 14.632812 -2.625 Z M 14.632812 -2.625 "/></g></g></g><g fill="#e9e6e1" fill-opacity="1"><g transform="translate(360.379033, 782.13536)"><g><path d="M 17.414062 0.386719 C 21.503906 0.386719 25.019531 -1.042969 27.914062 -3.9375 C 30.8125 -6.832031 32.277344 -10.347656 32.277344 -14.480469 C 32.277344 -18.570312 30.8125 -22.085938 27.914062 -24.980469 C 25.019531 -27.875 21.503906 -29.34375 17.414062 -29.34375 C 13.28125 -29.34375 9.769531 -27.875 6.871094 -24.980469 C 3.976562 -22.085938 2.546875 -18.570312 2.546875 -14.480469 C 2.546875 -10.347656 3.976562 -6.832031 6.871094 -3.9375 C 9.769531 -1.042969 13.28125 0.386719 17.414062 0.386719 Z M 17.414062 -2.238281 C 14.015625 -2.238281 11.121094 -3.398438 8.726562 -5.792969 C 6.332031 -8.183594 5.136719 -11.082031 5.136719 -14.480469 C 5.136719 -17.875 6.332031 -20.734375 8.726562 -23.128906 C 11.121094 -25.519531 14.015625 -26.71875 17.414062 -26.71875 C 20.8125 -26.71875 23.667969 -25.519531 26.0625 -23.128906 C 28.457031 -20.734375 29.652344 -17.875 29.652344 -14.480469 C 29.652344 -11.082031 28.457031 -8.183594 26.0625 -5.792969 C 23.667969 -3.398438 20.8125 -2.238281 17.414062 -2.238281 Z M 17.414062 -2.238281 "/></g></g></g><g fill="#e9e6e1" fill-opacity="1"><g transform="translate(398.634025, 782.13536)"><g><path d="M 14.132812 0.386719 C 17.179688 0.386719 19.730469 -0.539062 21.777344 -2.433594 C 23.785156 -4.324219 24.828125 -6.679688 24.828125 -9.535156 L 24.828125 -28.957031 L 22.199219 -28.957031 L 22.199219 -9.921875 C 22.199219 -7.722656 21.429688 -5.90625 19.882812 -4.441406 C 18.339844 -2.972656 16.410156 -2.238281 14.132812 -2.238281 C 11.816406 -2.238281 9.882812 -2.972656 8.339844 -4.441406 C 6.796875 -5.90625 6.023438 -7.722656 6.023438 -9.921875 L 6.023438 -28.957031 L 3.4375 -28.957031 L 3.4375 -9.535156 C 3.4375 -6.679688 4.441406 -4.324219 6.488281 -2.433594 C 8.496094 -0.539062 11.042969 0.386719 14.132812 0.386719 Z M 14.132812 0.386719 "/></g></g></g><g fill="#e9e6e1" fill-opacity="1"><g transform="translate(430.365342, 782.13536)"><g><path d="M 19.304688 -28.957031 L 0.5 -28.957031 L 0.5 -26.371094 L 8.570312 -26.371094 L 8.570312 0 L 11.195312 0 L 11.195312 -26.371094 L 19.304688 -26.371094 Z M 19.304688 -28.957031 "/></g></g></g><g fill="#e9e6e1" fill-opacity="1"><g transform="translate(453.604296, 782.13536)"><g/></g></g><g fill="#e9e6e1" fill-opacity="1"><g transform="translate(467.887677, 782.13536)"><g><path d="M 23.398438 0 L 26.253906 0 L 14.632812 -28.957031 L 11.738281 -28.957031 L 0.117188 0 L 2.972656 0 L 5.675781 -6.910156 L 20.695312 -6.910156 Z M 6.679688 -9.421875 L 13.203125 -25.945312 L 19.691406 -9.421875 Z M 6.679688 -9.421875 "/></g></g></g><g fill="#e9e6e1" fill-opacity="1"><g transform="translate(497.727514, 782.13536)"><g><path d="M 3.824219 0 L 6.410156 0 L 6.410156 -28.957031 L 3.824219 -28.957031 Z M 3.824219 0 "/></g></g></g><g fill="#e9e6e1" fill-opacity="1"><g transform="translate(350.381988, 841.385355)"><g><path d="M 17.335938 -14.75 C 18.570312 -15.367188 19.574219 -16.214844 20.269531 -17.375 C 20.964844 -18.496094 21.351562 -19.808594 21.351562 -21.3125 C 21.351562 -23.476562 20.578125 -25.289062 19.035156 -26.757812 C 17.492188 -28.222656 15.636719 -28.957031 13.476562 -28.957031 L 3.589844 -28.957031 L 3.589844 0 L 14.941406 0 C 17.105469 0 18.957031 -0.695312 20.464844 -2.164062 C 21.96875 -3.589844 22.742188 -5.40625 22.742188 -7.605469 C 22.742188 -9.382812 22.238281 -10.886719 21.273438 -12.164062 C 20.269531 -13.398438 18.957031 -14.285156 17.335938 -14.75 Z M 18.726562 -21.121094 C 18.726562 -19.574219 18.183594 -18.300781 17.105469 -17.296875 C 16.023438 -16.253906 14.75 -15.753906 13.203125 -15.753906 L 6.175781 -15.753906 L 6.175781 -26.332031 L 13.203125 -26.332031 C 14.75 -26.332031 16.023438 -25.832031 17.105469 -24.828125 C 18.183594 -23.824219 18.726562 -22.585938 18.726562 -21.121094 Z M 14.632812 -2.625 L 6.175781 -2.625 L 6.175781 -13.203125 L 14.632812 -13.203125 C 16.140625 -13.203125 17.414062 -12.664062 18.496094 -11.660156 C 19.574219 -10.617188 20.117188 -9.34375 20.117188 -7.875 C 20.117188 -6.371094 19.574219 -5.136719 18.53125 -4.132812 C 17.453125 -3.128906 16.175781 -2.625 14.632812 -2.625 Z M 14.632812 -2.625 "/></g></g></g><g fill="#e9e6e1" fill-opacity="1"><g transform="translate(378.832161, 841.385355)"><g><path d="M 22.894531 -28.957031 L 19.691406 -28.957031 L 11.503906 -16.410156 L 3.359375 -28.957031 L 0.117188 -28.957031 L 10.191406 -13.707031 L 10.191406 0 L 12.820312 0 L 12.820312 -13.707031 Z M 22.894531 -28.957031 "/></g></g></g><g fill="#e9e6e1" fill-opacity="1"><g transform="translate(405.313653, 841.385355)"><g/></g></g><g fill="#e9e6e1" fill-opacity="1"><g transform="translate(419.597034, 841.385355)"><g><path d="M 23.398438 0 L 26.253906 0 L 14.632812 -28.957031 L 11.738281 -28.957031 L 0.117188 0 L 2.972656 0 L 5.675781 -6.910156 L 20.695312 -6.910156 Z M 6.679688 -9.421875 L 13.203125 -25.945312 L 19.691406 -9.421875 Z M 6.679688 -9.421875 "/></g></g></g><g fill="#e9e6e1" fill-opacity="1"><g transform="translate(449.436878, 841.385355)"><g><path d="M 3.824219 0 L 6.410156 0 L 6.410156 -28.957031 L 3.824219 -28.957031 Z M 3.824219 0 "/></g></g></g></svg>